<?xml version="1.0" encoding="UTF-8" standalone="no"?>
<svg
   width="24.74542mm"
   height="25.690561mm"
   version="1.1"
   id="svg6"
   sodipodi:docname="plugin_icons.svg"
   inkscape:version="1.3 (0e150ed6c4, 2023-07-21)"
   xml:space="preserve"
   inkscape:export-filename="..\ProyectosGodot\MisPlugins\public\icons\plugin_header.png"
   inkscape:export-xdpi="194.29187"
   inkscape:export-ydpi="194.29187"
   xmlns:inkscape="http://www.inkscape.org/namespaces/inkscape"
   xmlns:sodipodi="http://sodipodi.sourceforge.net/DTD/sodipodi-0.dtd"
   xmlns="http://www.w3.org/2000/svg"
   xmlns:svg="http://www.w3.org/2000/svg"><sodipodi:namedview
     id="namedview6"
     pagecolor="#505050"
     bordercolor="#eeeeee"
     borderopacity="1"
     inkscape:showpageshadow="0"
     inkscape:pageopacity="0"
     inkscape:pagecheckerboard="0"
     inkscape:deskcolor="#d1d1d1"
     inkscape:zoom="1.4142136"
     inkscape:cx="169.70563"
     inkscape:cy="71.771338"
     inkscape:window-width="1920"
     inkscape:window-height="1017"
     inkscape:window-x="-8"
     inkscape:window-y="-8"
     inkscape:window-maximized="1"
     inkscape:current-layer="svg6"
     showgrid="false"
     inkscape:document-units="mm" /><defs
     id="defs6" /><g
     fill="#ffffff"
     transform="matrix(0.101,0,0,0.101,-4.9489995,-7.777)"
     id="g4"
     style="display:inline;fill:#ffffff"
     inkscape:label="g4"><path
       d="m 105,673 152,14 q 12,1 15,14 l 4,67 132,10 8,-61 q 2,-11 15,-15 h 162 q 13,4 15,15 l 8,61 132,-10 4,-67 q 3,-13 15,-14 L 919,673 V 427 q 30,-39 56,-81 -35,-59 -83,-108 -43,20 -82,47 -40,-37 -88,-64 7,-51 8,-102 -59,-28 -123,-42 -26,43 -46,89 -49,-7 -98,0 -20,-46 -46,-89 -64,14 -123,42 1,51 8,102 -48,27 -88,64 -39,-27 -82,-47 -48,49 -83,108 26,42 56,81 z"
       id="path2"
       style="display:inline;fill:#a445bc;fill-opacity:1" /><path
       d="m 483,540.59406 c 0,34 58,34 58,0 v -86 c 0,-34 -58,-34 -58,0 z"
       id="path3"
       style="fill:#ffffff" /><circle
       cx="725"
       cy="466.59409"
       r="90"
       id="circle3"
       style="fill:#ffffff" /><circle
       cx="299"
       cy="466.59409"
       r="90"
       id="circle4"
       style="fill:#ffffff" /><g
       fill="#414042"
       id="g6"
       style="fill:#3f3e3e"><circle
         cx="307"
         cy="492.39603"
         r="60"
         id="circle5"
         style="fill:#3e3e3d" /><circle
         cx="717"
         cy="492.39603"
         r="60"
         id="circle6"
         style="fill:#3e3e3d" /></g></g><path
     id="rect6"
     style="display:inline;opacity:1;fill:#823895;fill-opacity:1;stroke:none;stroke-width:4;stroke-linecap:round;stroke-linejoin:round;stroke-miterlimit:1.4;stroke-dasharray:none;stroke-opacity:1;paint-order:stroke fill markers"
     d="m 5.6555785,52.196331 0.03516,20.535156 13.5332035,1.210938 0.505859,6.96875 c 0.134666,0.673331 0.606064,1.1105 1.414062,1.3125 l 16.361329,1.111326 c 0.807998,0 1.345901,-0.370661 1.615234,-1.111326 l 1.009766,-6.564453 h 13.332031 l 1.011719,6.564453 c 0.269332,0.740665 0.807236,1.111326 1.615234,1.111326 L 72.4505,82.223675 c 0.807998,-0.202 1.279397,-0.639169 1.414062,-1.3125 l 0.50586,-6.96875 13.533198,-1.210938 -0.0332,-20.535156 -15.351561,1.414062 c -0.807999,0.06733 -1.313625,0.538731 -1.515625,1.414063 L 70.598938,61.790081 57.266906,62.8018 56.458312,56.63969 C 56.323646,55.899024 55.819973,55.393398 54.944641,55.124065 H 38.581359 c -0.875332,0.269333 -1.379005,0.774959 -1.513671,1.515625 L 36.259094,62.8018 22.927062,61.790081 22.522766,55.024456 c -0.202,-0.875332 -0.707626,-1.346729 -1.515625,-1.414063 z"
     sodipodi:nodetypes="ccccccccccccccccccccccccccccc" /><path
     d="m 5.6891925,72.252187 v 3.939 c 0,27.876003 82.1129975,27.876003 82.2139975,0 v -3.939 l -13.533998,1.212 -0.505,6.969 q -0.202,1.01 -1.414,1.313 l -16.362,1.111 q -1.212,0 -1.616,-1.111 l -1.01,-6.565 h -13.332 l -1.01,6.565 q -0.404,1.111 -1.616,1.111 l -16.362,-1.111 q -1.212,-0.303 -1.414,-1.313 l -0.505,-6.969 z"
     id="path6"
     style="display:inline;fill:#a445bc;fill-opacity:1;stroke-width:0.101" /><text
     xml:space="preserve"
     style="font-style:normal;font-variant:normal;font-weight:bold;font-stretch:normal;font-size:12px;font-family:'Microsoft Tai Le';-inkscape-font-specification:'Microsoft Tai Le Bold';fill:#59246a;fill-opacity:1;stroke:none;stroke-width:7;stroke-linecap:round;stroke-linejoin:round;stroke-miterlimit:1.4;paint-order:stroke markers fill"
     x="38.239559"
     y="71.966843"
     id="text8"><tspan
       sodipodi:role="line"
       id="tspan8"
       x="38.239559"
       y="71.966843"
       style="font-style:normal;font-variant:normal;font-weight:bold;font-stretch:normal;font-family:'Microsoft Tai Le';-inkscape-font-specification:'Microsoft Tai Le Bold';fill:#59246a;fill-opacity:1">DB</tspan></text></svg>
